<svg xmlns="http://www.w3.org/2000/svg" viewBox="0 0 512 512" width="512" height="512">
  
  <defs>
    <linearGradient id="bg" gradientUnits="userSpaceOnUse" x1="0" y1="0" x2="512" y2="512">
      <stop offset="0" stop-color="#0f1428"></stop><stop offset="1" stop-color="#070a14"></stop>
    </linearGradient>
    <radialGradient id="glow" gradientUnits="userSpaceOnUse" cx="256" cy="230" r="230">
      <stop offset="0" stop-color="#a855f7" stop-opacity="0.4"></stop>
      <stop offset="1" stop-color="#a855f7" stop-opacity="0"></stop>
    </radialGradient>
    
    <clipPath id="cutTop"><rect x="0" y="0" width="88" height="29"></rect></clipPath>
    <clipPath id="cutBottom"><rect x="0" y="35" width="88" height="29"></rect></clipPath>
    <linearGradient id="fillTop" gradientUnits="userSpaceOnUse" x1="15" y1="0" x2="73" y2="0">
      <stop offset="0" stop-color="#fdf2f8"></stop><stop offset="1" stop-color="#f9a8d4"></stop>
    </linearGradient>
    <linearGradient id="fillBottom" gradientUnits="userSpaceOnUse" x1="15" y1="0" x2="73" y2="0">
      <stop offset="0" stop-color="#a78bfa"></stop><stop offset="1" stop-color="#38bdf8"></stop>
    </linearGradient>
    <linearGradient id="beam" gradientUnits="userSpaceOnUse" x1="4" y1="32" x2="84" y2="32">
      <stop offset="0" stop-color="#f472b6" stop-opacity="0"></stop>
      <stop offset="0.3" stop-color="#f472b6"></stop>
      <stop offset="0.7" stop-color="#38bdf8"></stop>
      <stop offset="1" stop-color="#38bdf8" stop-opacity="0"></stop>
    </linearGradient>
  </defs>
  <rect width="512" height="512" rx="128" fill="url(#bg)"></rect>
  <rect width="512" height="512" rx="128" fill="url(#glow)"></rect>
  <g transform="translate(256 256) scale(4.4) translate(-44 -32)">
    <path d="M44 3 C46 22 54 30 73 32 C54 34 46 42 44 61 C42 42 34 34 15 32 C34 30 42 22 44 3 Z" fill="url(#fillTop)" clip-path="url(#cutTop)"></path>
    <path d="M44 3 C46 22 54 30 73 32 C54 34 46 42 44 61 C42 42 34 34 15 32 C34 30 42 22 44 3 Z" fill="url(#fillBottom)" clip-path="url(#cutBottom)" opacity="0.8"></path>
    <line x1="4" y1="32" x2="84" y2="32" stroke="url(#beam)" stroke-width="2.5" stroke-linecap="round"></line>
  </g>
</svg>