<svg xmlns="http://www.w3.org/2000/svg" viewBox="0 0 88 64" width="88" height="64">
  <defs>
    <clipPath id="cutTop"><rect x="0" y="0" width="88" height="29"></rect></clipPath>
    <clipPath id="cutBottom"><rect x="0" y="35" width="88" height="29"></rect></clipPath>
    <linearGradient id="fillTop" gradientUnits="userSpaceOnUse" x1="15" y1="0" x2="73" y2="0">
      <stop offset="0" stop-color="#fdf2f8"></stop><stop offset="1" stop-color="#f9a8d4"></stop>
    </linearGradient>
    <linearGradient id="fillBottom" gradientUnits="userSpaceOnUse" x1="15" y1="0" x2="73" y2="0">
      <stop offset="0" stop-color="#a78bfa"></stop><stop offset="1" stop-color="#38bdf8"></stop>
    </linearGradient>
    <linearGradient id="beam" gradientUnits="userSpaceOnUse" x1="4" y1="32" x2="84" y2="32">
      <stop offset="0" stop-color="#f472b6" stop-opacity="0"></stop>
      <stop offset="0.3" stop-color="#f472b6"></stop>
      <stop offset="0.7" stop-color="#38bdf8"></stop>
      <stop offset="1" stop-color="#38bdf8" stop-opacity="0"></stop>
    </linearGradient>
  </defs>
  <path d="M44 3 C46 22 54 30 73 32 C54 34 46 42 44 61 C42 42 34 34 15 32 C34 30 42 22 44 3 Z" fill="url(#fillTop)" clip-path="url(#cutTop)"></path>
  <path d="M44 3 C46 22 54 30 73 32 C54 34 46 42 44 61 C42 42 34 34 15 32 C34 30 42 22 44 3 Z" fill="url(#fillBottom)" clip-path="url(#cutBottom)" opacity="0.8"></path>
  <line x1="4" y1="32" x2="84" y2="32" stroke="url(#beam)" stroke-width="2.5" stroke-linecap="round"></line>
</svg>